<?xml version="1.0" encoding="UTF-8" standalone="no"?>
<!DOCTYPE svg PUBLIC "-//W3C//DTD SVG 1.1//EN" "http://www.w3.org/Graphics/SVG/1.1/DTD/svg11.dtd">
<svg version="1.1" xmlns="http://www.w3.org/2000/svg" xmlns:xlink="http://www.w3.org/1999/xlink" preserveAspectRatio="xMidYMid meet" viewBox="0 0 540 120"><defs><path d="M0 81.13C22.37 80.55 36.35 80.19 41.94 80.05C128.53 77.83 215.15 82.64 300.96 94.44C326.55 97.95 342.92 100.2 385.64 106.08C414.42 110.03 443.49 111.31 472.5 109.9C481.5 109.47 504 108.37 540 106.63L540 11.98C501.55 20.96 477.52 26.57 467.91 28.82C421.31 39.7 372.95 40.71 325.93 31.78C290.61 25.08 269.51 21.07 237.59 15.01C180.14 4.1 120.74 11.11 67.42 35.1C58.43 39.15 35.96 49.26 0 65.43L0 81.13Z" id="a1g4g47MZ"></path></defs><g><g><g><g><filter id="shadow15311979" x="-36" y="-26" width="612" height="172.46" filterUnits="userSpaceOnUse" primitiveUnits="userSpaceOnUse"><feFlood></feFlood><feComposite in2="SourceAlpha" operator="in"></feComposite><feGaussianBlur stdDeviation="3.87"></feGaussianBlur><feOffset dx="0" dy="0" result="afterOffset"></feOffset><feFlood flood-color="#000000" flood-opacity="0.5"></feFlood><feComposite in2="afterOffset" operator="in"></feComposite><feMorphology operator="dilate" radius="1"></feMorphology><feComposite in2="SourceAlpha" operator="out"></feComposite></filter><path d="M0 81.13C22.37 80.55 36.35 80.19 41.94 80.05C128.53 77.83 215.15 82.64 300.96 94.44C326.55 97.95 342.92 100.2 385.64 106.08C414.42 110.03 443.49 111.31 472.5 109.9C481.5 109.47 504 108.37 540 106.63L540 11.98C501.55 20.96 477.52 26.57 467.91 28.82C421.31 39.7 372.95 40.71 325.93 31.78C290.61 25.08 269.51 21.07 237.59 15.01C180.14 4.1 120.74 11.11 67.42 35.1C58.43 39.15 35.96 49.26 0 65.43L0 81.13Z" id="b1ZW55lCaN" fill="white" fill-opacity="1" filter="url(#shadow15311979)"></path></g><use xlink:href="#a1g4g47MZ" opacity="1" fill="#633991" fill-opacity="1"></use><g><use xlink:href="#a1g4g47MZ" opacity="1" fill-opacity="0" stroke="#000000" stroke-width="0" stroke-opacity="1"></use></g></g></g></g></svg>