<?xml version="1.0" encoding="UTF-8" standalone="no"?>
<!DOCTYPE svg PUBLIC "-//W3C//DTD SVG 1.1//EN" "http://www.w3.org/Graphics/SVG/1.1/DTD/svg11.dtd">
<svg version="1.1" xmlns="http://www.w3.org/2000/svg" xmlns:xlink="http://www.w3.org/1999/xlink" preserveAspectRatio="none" viewBox="0 0 540 120"><defs><path d="M0 61.83C51.8 45.68 95.07 35.88 129.8 32.44C175.1 27.95 220.84 32.27 264.49 45.17C283.13 50.67 280.69 49.96 301.27 56.04C338.73 67.1 377.42 73.5 416.45 75.06C432.92 75.72 474.11 77.38 540 80.02L540 98.48C490.92 99.26 460.25 99.75 447.98 99.94C447.98 99.94 324.83 100.07 324.83 100.07C301.72 99.75 309.43 99.86 290.19 99.6C290.19 99.6 128.32 98.48 128.32 98.48C111.21 98.48 68.44 98.48 0 98.48C-78.7 98.59 -78.7 86.37 0 61.83Z" id="d9ha7c5y"></path></defs><g><g><g><g><filter id="shadow6741673" x="-95.02" y="-5.28" width="671.02" height="141.36" filterUnits="userSpaceOnUse" primitiveUnits="userSpaceOnUse"><feFlood></feFlood><feComposite in2="SourceAlpha" operator="in"></feComposite><feGaussianBlur stdDeviation="3.87"></feGaussianBlur><feOffset dx="0" dy="0" result="afterOffset"></feOffset><feFlood flood-color="#000000" flood-opacity="0.5"></feFlood><feComposite in2="afterOffset" operator="in"></feComposite><feMorphology operator="dilate" radius="1"></feMorphology><feComposite in2="SourceAlpha" operator="out"></feComposite></filter><path d="M0 61.83C51.8 45.68 95.07 35.88 129.8 32.44C175.1 27.95 220.84 32.27 264.49 45.17C283.13 50.67 280.69 49.96 301.27 56.04C338.73 67.1 377.42 73.5 416.45 75.06C432.92 75.72 474.11 77.38 540 80.02L540 98.48C490.92 99.26 460.25 99.75 447.98 99.94C447.98 99.94 324.83 100.07 324.83 100.07C301.72 99.75 309.43 99.86 290.19 99.6C290.19 99.6 128.32 98.48 128.32 98.48C111.21 98.48 68.44 98.48 0 98.48C-78.7 98.59 -78.7 86.37 0 61.83Z" id="ikKxZHSHg" fill="white" fill-opacity="1" filter="url(#shadow6741673)"></path></g><use xlink:href="#d9ha7c5y" opacity="1" fill="#ffffff" fill-opacity="1"></use><g><use xlink:href="#d9ha7c5y" opacity="1" fill-opacity="0" stroke="#000000" stroke-width="0" stroke-opacity="1"></use></g></g></g></g></svg>