<?xml version="1.0" encoding="UTF-8" standalone="no"?>
<!DOCTYPE svg PUBLIC "-//W3C//DTD SVG 1.1//EN" "http://www.w3.org/Graphics/SVG/1.1/DTD/svg11.dtd">
<svg version="1.1" xmlns="http://www.w3.org/2000/svg" xmlns:xlink="http://www.w3.org/1999/xlink" preserveAspectRatio="none" viewBox="0 0 540 120"><defs><path d="M0 49.88C20.7 44.07 33.64 40.44 38.81 38.99C84.55 26.16 132.43 22.8 179.52 29.11C228.93 35.74 297.96 45 345.42 51.37C399.15 58.58 453.7 56.73 506.82 45.92C511.25 45.02 522.31 42.77 540 39.17L540 67.69C503.99 75.56 481.49 80.48 472.49 82.45C423.74 93.12 374.12 99.35 324.25 101.07C296.39 102.04 306.65 101.68 283.51 102.48C217.93 104.75 152.27 101.81 87.16 93.68C75.54 92.23 46.48 88.6 0 82.8L0 49.88Z" id="g12gloeODE"></path></defs><g><g><g><g><filter id="shadow14764234" x="-36" y="-9.99" width="612" height="149.21" filterUnits="userSpaceOnUse" primitiveUnits="userSpaceOnUse"><feFlood></feFlood><feComposite in2="SourceAlpha" operator="in"></feComposite><feGaussianBlur stdDeviation="3.87"></feGaussianBlur><feOffset dx="0" dy="0" result="afterOffset"></feOffset><feFlood flood-color="#000000" flood-opacity="0.5"></feFlood><feComposite in2="afterOffset" operator="in"></feComposite><feMorphology operator="dilate" radius="1"></feMorphology><feComposite in2="SourceAlpha" operator="out"></feComposite></filter><path d="M0 49.88C20.7 44.07 33.64 40.44 38.81 38.99C84.55 26.16 132.43 22.8 179.52 29.11C228.93 35.74 297.96 45 345.42 51.37C399.15 58.58 453.7 56.73 506.82 45.92C511.25 45.02 522.31 42.77 540 39.17L540 67.69C503.99 75.56 481.49 80.48 472.49 82.45C423.74 93.12 374.12 99.35 324.25 101.07C296.39 102.04 306.65 101.68 283.51 102.48C217.93 104.75 152.27 101.81 87.16 93.68C75.54 92.23 46.48 88.6 0 82.8L0 49.88Z" id="c15ifTGESz" fill="white" fill-opacity="1" filter="url(#shadow14764234)"></path></g><use xlink:href="#g12gloeODE" opacity="1" fill="#fff" fill-opacity="1"></use><g><use xlink:href="#g12gloeODE" opacity="1" fill-opacity="0" stroke="#000000" stroke-width="0" stroke-opacity="1"></use></g></g></g></g></svg>